<svg xmlns="http://www.w3.org/2000/svg" viewBox="0 0 25.94 30.33"><defs><style>.cls-1{fill:#fff;}</style></defs><g id="Calque_2" data-name="Calque 2"><g id="Calque_1-2" data-name="Calque 1"><path d="M23.7,10.49c-.15,1.61-.3,3.15-.44,4.68-.42,4.37-.82,8.74-1.25,13.11a2,2,0,0,1-2.29,2H6.24a2,2,0,0,1-2.33-2.14c-.42-4.27-.81-8.53-1.21-12.8l-.36-3.82c0-.34,0-.69-.07-1.07ZM8.82,20.2c-.13-1.87-.25-3.74-.38-5.61a1.09,1.09,0,0,0-.79-1.13A1,1,0,0,0,6.4,14.64c.08,1.61.2,3.21.3,4.81.14,2.06.28,4.11.41,6.17,0,.5.23.94.73,1a1.38,1.38,0,0,0,1-.3,1.36,1.36,0,0,0,.25-1C9.05,23.65,8.93,21.93,8.82,20.2Zm8.09,3.29h0c0,.72-.1,1.43-.11,2.15a1,1,0,0,0,.91,1.07,1,1,0,0,0,1.09-.87,3.43,3.43,0,0,0,.06-.55c.16-2.49.33-5,.49-7.46.07-1.11.16-2.22.19-3.33a1,1,0,0,0-.9-1.06,1,1,0,0,0-1.1.93,3,3,0,0,0-.05.43Zm-5-3.44v3c0,.91,0,1.82,0,2.72a1,1,0,0,0,1,1,1,1,0,0,0,1-1c0-.14,0-.29,0-.43V14.81a2.56,2.56,0,0,0-.05-.62,1,1,0,0,0-1.41-.65A1.1,1.1,0,0,0,12,14.68Z"/><path d="M7.85,4.17c0-.35,0-.66,0-1A3.23,3.23,0,0,1,11,.05C12.24,0,13.52,0,14.8,0a3.31,3.31,0,0,1,3.31,3.31c0,.26,0,.53,0,.87h1c1.48,0,3,0,4.45,0a2.25,2.25,0,0,1,2.39,2.36c.06,2.06-.19,2.08-2,2.07H1.55C.22,8.64,0,8.42,0,7.1V6.73A2.31,2.31,0,0,1,2.55,4.21H7.12C7.34,4.21,7.56,4.19,7.85,4.17Zm7.94,0C16,3,15.71,2.36,15,2.32a34.54,34.54,0,0,0-4.07,0c-.67,0-1.14,1.13-.82,1.72a.43.43,0,0,0,.3.16Z"/><path class="cls-1" d="M16.91,23.49l.57-8.69a3,3,0,0,1,.05-.43,1,1,0,0,1,1.1-.93,1,1,0,0,1,.9,1.06c0,1.11-.12,2.22-.19,3.33-.16,2.49-.33,5-.49,7.46a3.43,3.43,0,0,1-.06.55,1,1,0,0,1-1.09.87,1,1,0,0,1-.91-1.07c0-.72.07-1.43.11-2.15Z"/></g></g></svg>