<svg xmlns="http://www.w3.org/2000/svg" viewBox="0 0 26.91 26.89"><g id="Calque_2" data-name="Calque 2"><g id="Calque_1-2" data-name="Calque 1"><path d="M14.31,5.51,15.64,6.9C14.49,8,13.28,9.23,12.08,10.43q-3.72,3.71-7.43,7.43a2,2,0,0,0-.45.75c-.41,1.34-.76,2.69-1.2,4-.17.54.23.71.46,1a.67.67,0,0,0,.82.29c1.27-.41,2.57-.75,3.85-1.15a1.86,1.86,0,0,0,.73-.48Q14.2,17,19.53,11.63l.49-.47,1.49,1.6L19.26,15c-3,2.94-5.94,5.89-8.94,8.81a3.82,3.82,0,0,1-1.46.87c-2.4.74-4.83,1.42-7.25,2.12l-.34.08C.36,27-.19,26.49.06,25.61c.76-2.73,1.57-5.45,2.37-8.17A1.22,1.22,0,0,1,2.76,17L14.21,5.56A.24.24,0,0,1,14.31,5.51Z"/><path d="M7.1,21.32c.27-1.5-.73-1.63-1.69-1.74L16.86,8.11l1.65,1.72L7.28,21.25Z"/><path d="M18.32,1.63c.32-.3.69-.69,1.1-1a2.33,2.33,0,0,1,3.17.06c1.26,1.2,2.49,2.44,3.69,3.69a2.32,2.32,0,0,1,.08,3.08c-.35.43-.75.83-1.08,1.2Z"/><path d="M24.18,10.07l-1.45,1.37L15.49,4.19,17,2.8Z"/></g></g></svg>