<?xml version="1.0" encoding="utf-8"?>
<!-- Generator: Adobe Illustrator 25.4.1, SVG Export Plug-In . SVG Version: 6.00 Build 0)  -->
<svg version="1.1" id="Calque_1" xmlns="http://www.w3.org/2000/svg" xmlns:xlink="http://www.w3.org/1999/xlink" x="0px" y="0px"
	 viewBox="0 0 256 256" style="enable-background:new 0 0 256 256;" xml:space="preserve">
<style type="text/css">
	.st0{fill:#6C93AB;}
</style>
<desc>Created with Fabric.js 1.7.22</desc>
<g transform="translate(128 128) scale(0.72 0.72)">
	<g transform="translate(-175.05 -175.05000000000004) scale(3.89 3.89)">
		<path class="st0" d="M88.4,87.3H1.6c-0.8,0-1.5-0.7-1.5-1.5s0.7-1.5,1.5-1.5h86.9c0.8,0,1.5,0.7,1.5,1.5S89.3,87.3,88.4,87.3z"/>
		<path class="st0" d="M62.3,87.3c-0.8,0-1.5-0.7-1.5-1.5V71.2c0-0.8,0.7-1.5,1.5-1.5s1.5,0.7,1.5,1.5v14.6
			C63.8,86.6,63.1,87.3,62.3,87.3z"/>
		<path class="st0" d="M72.2,51.9c-0.6,0-1.2-0.4-1.4-1.1l-8.5-27.8L57.4,39c-0.2,0.8-1.1,1.2-1.9,1c-0.8-0.2-1.2-1.1-1-1.9
			l6.3-20.5c0.2-0.6,0.8-1.1,1.4-1.1s1.2,0.4,1.4,1.1L73.7,50c0.2,0.8-0.2,1.6-1,1.9C72.5,51.9,72.4,51.9,72.2,51.9z"/>
		<path class="st0" d="M27.9,87.3c-0.8,0-1.5-0.7-1.5-1.5V71.2c0-0.8,0.7-1.5,1.5-1.5s1.5,0.7,1.5,1.5v14.6
			C29.4,86.6,28.7,87.3,27.9,87.3z"/>
		<path class="st0" d="M18.4,55.1c-0.1,0-0.3,0-0.4-0.1c-0.8-0.2-1.2-1.1-1-1.9L26.5,22c0.2-0.6,0.8-1.1,1.4-1.1s1.2,0.4,1.4,1.1
			l6,19.6c0.2,0.8-0.2,1.6-1,1.9c-0.8,0.2-1.6-0.2-1.9-1l-4.6-14.9L19.8,54C19.6,54.7,19,55.1,18.4,55.1z"/>
		<path class="st0" d="M45.5,87.3c-0.8,0-1.5-0.7-1.5-1.5V45.6c0-0.8,0.7-1.5,1.5-1.5c0.8,0,1.5,0.7,1.5,1.5v40.2
			C47,86.6,46.3,87.3,45.5,87.3z"/>
		<path class="st0" d="M45.5,65.8c-0.4,0-0.8-0.1-1.1-0.4c-0.6-0.6-0.6-1.5,0-2.1l4.7-4.7c0.6-0.6,1.5-0.6,2.1,0s0.6,1.5,0,2.1
			l-4.7,4.7C46.3,65.7,45.9,65.8,45.5,65.8z"/>
		<path class="st0" d="M45.5,58.8c-0.4,0-0.8-0.1-1.1-0.4l-4.8-4.8c-0.6-0.6-0.6-1.5,0-2.1s1.5-0.6,2.1,0l4.8,4.8
			c0.6,0.6,0.6,1.5,0,2.1C46.3,58.6,45.9,58.8,45.5,58.8z"/>
		<path class="st0" d="M62.3,72.7H28.7c-0.5,0-0.9-0.2-1.2-0.6c-0.3-0.4-0.4-0.9-0.2-1.4L32,56.3h-2c-0.5,0-0.9-0.2-1.2-0.6
			c-0.3-0.4-0.4-0.9-0.2-1.3L44.1,3.7c0.2-0.6,0.8-1.1,1.4-1.1l0,0c0.7,0,1.2,0.4,1.4,1.1l15.5,50.6c0.1,0.5,0.1,0.9-0.2,1.3
			c-0.3,0.4-0.7,0.6-1.2,0.6h-2l4.8,14.4c0.2,0.5,0.1,1-0.2,1.4C63.3,72.4,62.8,72.7,62.3,72.7z M30.7,69.7h29.5l-4.8-14.4
			c-0.2-0.5-0.1-1,0.2-1.4c0.3-0.4,0.7-0.6,1.2-0.6H59l-13.5-44L32,53.3h2.1c0.5,0,0.9,0.2,1.2,0.6c0.3,0.4,0.4,0.9,0.2,1.4
			L30.7,69.7z"/>
		<path class="st0" d="M78.3,87.3c-0.8,0-1.5-0.7-1.5-1.5V55.7c0-0.8,0.7-1.5,1.5-1.5s1.5,0.7,1.5,1.5v30.1
			C79.8,86.6,79.1,87.3,78.3,87.3z"/>
		<path class="st0" d="M78.3,68.5c-0.4,0-0.8-0.1-1.1-0.4c-0.6-0.6-0.6-1.5,0-2.1l2.8-2.8c0.6-0.6,1.5-0.6,2.1,0s0.6,1.5,0,2.1
			l-2.8,2.8C79.1,68.4,78.7,68.5,78.3,68.5z"/>
		<path class="st0" d="M78.3,64.2c-0.4,0-0.8-0.1-1.1-0.4l-2.9-2.9c-0.6-0.6-0.6-1.5,0-2.1s1.5-0.6,2.1,0l2.9,2.9
			c0.6,0.6,0.6,1.5,0,2.1C79.1,64.1,78.7,64.2,78.3,64.2z"/>
		<path class="st0" d="M88.5,72.7H68.1c-0.5,0-0.9-0.2-1.2-0.6c-0.3-0.4-0.4-0.9-0.2-1.4l2.6-7.9h-0.4c-0.5,0-0.9-0.2-1.2-0.6
			c-0.3-0.4-0.4-0.9-0.2-1.3l9.4-30.6c0.2-0.6,0.8-1.1,1.4-1.1s1.2,0.4,1.4,1.1l9.4,30.6c0.1,0.5,0.1,0.9-0.2,1.3
			c-0.3,0.4-0.7,0.6-1.2,0.6h-0.4l2.6,7.9c0.2,0.5,0.1,1-0.2,1.4C89.4,72.4,89,72.7,88.5,72.7z M70.2,69.7h16.2l-2.6-7.9
			c-0.2-0.5-0.1-1,0.2-1.4c0.3-0.4,0.7-0.6,1.2-0.6h0.4l-7.4-24l-7.4,24h0.4c0.5,0,0.9,0.2,1.2,0.6c0.3,0.4,0.4,0.9,0.2,1.4
			L70.2,69.7z"/>
		<path class="st0" d="M11.5,87.3c-0.8,0-1.5-0.7-1.5-1.5V55.9c0-0.8,0.7-1.5,1.5-1.5s1.5,0.7,1.5,1.5v29.9
			C13,86.6,12.4,87.3,11.5,87.3z"/>
		<path class="st0" d="M11.5,68.6c-0.4,0-0.8-0.1-1.1-0.4c-0.6-0.6-0.6-1.5,0-2.1l2.8-2.8c0.6-0.6,1.5-0.6,2.1,0
			c0.6,0.6,0.6,1.5,0,2.1l-2.8,2.8C12.3,68.4,11.9,68.6,11.5,68.6z"/>
		<path class="st0" d="M11.5,64.4c-0.4,0-0.8-0.1-1.1-0.4l-2.9-2.9c-0.6-0.6-0.6-1.5,0-2.1s1.5-0.6,2.1,0l2.9,2.9
			c0.6,0.6,0.6,1.5,0,2.1C12.3,64.2,11.9,64.4,11.5,64.4z"/>
		<path class="st0" d="M21.6,72.7H1.5c-0.5,0-0.9-0.2-1.2-0.6c-0.3-0.4-0.4-0.9-0.2-1.4l2.6-7.8H2.3c-0.5,0-0.9-0.2-1.2-0.6
			S0.7,61.4,0.9,61l9.2-30.2c0.2-0.6,0.8-1.1,1.4-1.1s1.2,0.4,1.4,1.1L22.2,61c0.1,0.5,0.1,0.9-0.2,1.3c-0.3,0.4-0.7,0.6-1.2,0.6
			h-0.4l2.6,7.8c0.2,0.5,0.1,1-0.2,1.4C22.5,72.4,22,72.7,21.6,72.7z M3.6,69.7h15.9l-2.6-7.8c-0.2-0.5-0.1-1,0.2-1.4
			c0.3-0.4,0.7-0.6,1.2-0.6h0.4l-7.2-23.5L4.3,59.9h0.4c0.5,0,0.9,0.2,1.2,0.6c0.3,0.4,0.4,0.9,0.2,1.4L3.6,69.7z"/>
		<path class="st0" d="M31.7,72.7H19.8c-0.8,0-1.5-0.7-1.5-1.5s0.7-1.5,1.5-1.5h11.9c0.8,0,1.5,0.7,1.5,1.5S32.5,72.7,31.7,72.7z"/>
		<path class="st0" d="M72.2,72.7H57.2c-0.8,0-1.5-0.7-1.5-1.5s0.7-1.5,1.5-1.5h15.1c0.8,0,1.5,0.7,1.5,1.5S73.1,72.7,72.2,72.7z"/>
	</g>
</g>
</svg>
