<?xml version="1.0" encoding="utf-8"?>
<!-- Generator: Adobe Illustrator 25.4.1, SVG Export Plug-In . SVG Version: 6.00 Build 0)  -->
<svg version="1.1" id="Calque_1" xmlns="http://www.w3.org/2000/svg" xmlns:xlink="http://www.w3.org/1999/xlink" x="0px" y="0px"
	 viewBox="0 0 256 256" style="enable-background:new 0 0 256 256;" xml:space="preserve">
<style type="text/css">
	.st0{fill:#6C93AB;}
</style>
<desc>Created with Fabric.js 1.7.22</desc>
<g transform="translate(128 128) scale(0.72 0.72)">
	<g transform="translate(-175.05 -175.05000000000004) scale(3.89 3.89)">
		<path class="st0" d="M80.8,75c6-6.6,9.2-15.1,9.2-24.1c0-16-10.6-30.1-25.8-34.7c-6.6-8.1-16.7-13.3-28-13.3
			C16.2,2.9,0,19.2,0,39.1c0,9,3.3,17.5,9.2,24.1l-8.6,8.6c-0.6,0.6-0.7,1.4-0.4,2.2s1,1.2,1.8,1.2h25.1
			c6.9,7.5,16.5,11.8,26.7,11.8H88c0.8,0,1.5-0.5,1.8-1.2c0.3-0.7,0.1-1.6-0.4-2.2L80.8,75z M13.4,64.7c0.8-0.8,0.8-2,0-2.8
			C7.3,55.8,4,47.7,4,39.1C4,21.4,18.4,6.9,36.2,6.9s32.2,14.4,32.2,32.2S53.9,71.3,36.2,71.3H6.8L13.4,64.7z M53.8,83.1
			c-7.7,0-15.2-2.8-21-7.8h3.3c19.9,0,36.2-16.2,36.2-36.2c0-6.2-1.6-12-4.3-17.1C78.8,27.4,86,38.5,86,50.9
			c0,8.6-3.3,16.7-9.4,22.7c-0.8,0.8-0.8,2,0,2.8l6.6,6.6H53.8z"/>
		<path class="st0" d="M52,25.5H20.3c-1.1,0-2-0.9-2-2s0.9-2,2-2H52c1.1,0,2,0.9,2,2S53.1,25.5,52,25.5z"/>
		<path class="st0" d="M52,35.3H20.3c-1.1,0-2-0.9-2-2s0.9-2,2-2H52c1.1,0,2,0.9,2,2S53.1,35.3,52,35.3z"/>
		<path class="st0" d="M52,45H20.3c-1.1,0-2-0.9-2-2s0.9-2,2-2H52c1.1,0,2,0.9,2,2S53.1,45,52,45z"/>
		<path class="st0" d="M36.5,54.8H20.3c-1.1,0-2-0.9-2-2s0.9-2,2-2h16.1c1.1,0,2,0.9,2,2S37.6,54.8,36.5,54.8z"/>
	</g>
</g>
</svg>
