<?xml version="1.0" encoding="utf-8"?>
<!-- Generator: Adobe Illustrator 25.4.1, SVG Export Plug-In . SVG Version: 6.00 Build 0)  -->
<svg version="1.1" id="Calque_1" xmlns="http://www.w3.org/2000/svg" xmlns:xlink="http://www.w3.org/1999/xlink" x="0px" y="0px"
	 viewBox="0 0 256 256" style="enable-background:new 0 0 256 256;" xml:space="preserve">
<style type="text/css">
	.st0{fill:#6C93AB;}
</style>
<desc>Created with Fabric.js 1.7.22</desc>
<g transform="translate(128 128) scale(0.72 0.72)">
	<g transform="translate(-175.05 -175.05000000000004) scale(3.89 3.89)">
		<path class="st0" d="M76.3,90H13.7c-3,0-5.4-2.4-5.4-5.4v-6.1c0-13.2,8.9-25.2,21.5-29.1c1.8-0.6,3.1-2.2,3.1-4.1
			c0-1.2-0.5-2.3-1.3-3.1c-3.7-3.6-5.7-8.4-5.7-13.5v-9.6c0-5.2,2.1-10.1,5.8-13.7c3.8-3.6,8.7-5.5,13.9-5.3
			c10.1,0.4,18.4,9.1,18.4,19.4v9.2c0,5.1-2,9.9-5.7,13.5c-0.8,0.8-1.3,1.9-1.3,3.1c0,1.9,1.2,3.6,3.1,4.1
			c12.7,3.9,21.5,15.9,21.5,29.1v6.1C81.7,87.6,79.2,90,76.3,90z M45,4c-3.9,0-7.6,1.5-10.4,4.2c-3,2.9-4.6,6.7-4.6,10.8v9.6
			c0,4,1.6,7.8,4.5,10.7c1.6,1.6,2.5,3.7,2.5,5.9c0,3.7-2.4,6.9-5.9,7.9C20,56.6,12.3,67,12.3,78.5v6.1c0,0.8,0.6,1.4,1.4,1.4h62.5
			c0.8,0,1.4-0.6,1.4-1.4v-6.1c0-11.5-7.7-21.9-18.7-25.3c-3.5-1.1-5.9-4.3-5.9-7.9c0-2.2,0.9-4.4,2.5-5.9c2.9-2.9,4.5-6.6,4.5-10.7
			v-9.2C60,11.2,53.5,4.3,45.5,4C45.4,4,45.2,4,45,4z"/>
	</g>
</g>
</svg>
